<mxfile host="app.diagrams.net" modified="2021-05-12T08:28:47.717Z" agent="5.0 (Windows NT 10.0; Win64; x64) AppleWebKit/537.36 (KHTML, like Gecko) Chrome/89.0.4389.105 YaBrowser/21.3.3.230 Yowser/2.5 Safari/537.36" etag="fGw1l1-z_QpMFeWf4Utf" version="14.6.12" type="github">
  <diagram id="VhirNXBc8BUo8Ws5Ngwz" name="Page-1">
    <mxGraphModel dx="1054" dy="647" grid="1" gridSize="10" guides="1" tooltips="1" connect="1" arrows="1" fold="1" page="1" pageScale="1" pageWidth="1169" pageHeight="827" math="0" shadow="0">
      <root>
        <mxCell id="0" />
        <mxCell id="1" parent="0" />
      </root>
    </mxGraphModel>
  </diagram>
</mxfile>
